<svg width="142" height="72" viewBox="0 0 142 72" fill="none" xmlns="http://www.w3.org/2000/svg">
<path d="M63.9035 36.4189H60.293V48.8315H63.9035V36.4189Z" fill="#FF7C1C"/>
<path d="M94.568 16.4564C94.568 23.0294 89.8854 29.65 79.6432 31.9839V48.8309H76.0326V32.5984C74.5151 32.7698 72.9047 32.8699 71.1923 32.8699H46.4336V29.1642H60.2864V10.7883H63.8969V29.169H71.1923C72.8908 29.169 74.5012 29.0689 76.0326 28.8594V17.7281H79.6432V28.1544C86.6462 26.3016 90.9575 22.053 90.9575 16.4564C90.9575 9.10697 83.3744 3.99144 72.0833 3.74376L70.278 3.70566L70.3616 0L72.1669 0.0381053C87.6486 0.385809 94.568 8.52587 94.568 16.4564Z" fill="#FF7C1C"/>
<path d="M0 58.7803H4.72898C7.58307 58.7803 9.45796 60.3378 9.45796 62.9289C9.45796 65.7248 7.18397 67.1728 4.4923 67.1728H1.42473V71.7501H0V58.7803ZM4.54799 65.8391C6.64099 65.8391 8.01467 64.6912 8.01467 62.9479C8.01467 61.0951 6.65956 60.133 4.62224 60.133H1.42473V65.8391H4.54799Z" fill="#FF7C1C"/>
<path d="M12.0625 58.7803H17.4969C19.0515 58.7803 20.2953 59.2613 21.0889 60.0806C21.7014 60.7093 22.0634 61.6191 22.0634 62.6765C22.0634 64.8246 20.6201 66.0868 18.6339 66.4536L22.5182 71.7548H20.7686L17.1024 66.7155H13.4919V71.7548H12.0671V58.7803H12.0625ZM17.3716 65.3962C19.2697 65.3962 20.6201 64.3959 20.6201 62.6907C20.6201 61.0951 19.4275 60.133 17.3901 60.133H13.4919V65.3962H17.3716Z" fill="#FF7C1C"/>
<path d="M24.5508 65.2533C24.5508 61.6762 27.1682 58.5469 31.0154 58.5469C34.8626 58.5469 37.4429 61.6429 37.4429 65.2533C37.4429 68.8303 34.8255 71.9596 30.9783 71.9596C27.1311 71.9596 24.5508 68.8684 24.5508 65.2533ZM35.9625 65.2533C35.9625 62.3097 33.8695 59.8996 30.9783 59.8996C28.0917 59.8996 26.0312 62.2716 26.0312 65.2533C26.0312 68.1968 28.1242 70.6069 31.0154 70.6069C33.902 70.6069 35.9625 68.2397 35.9625 65.2533Z" fill="#FF7C1C"/>
<path d="M38.6855 69.6361L39.7158 68.7264C40.4908 69.9314 41.2844 70.5792 42.6024 70.5792C44.0271 70.5792 45.0759 69.5218 45.0759 67.4689V58.7764H46.5192V67.4499C46.5192 68.9693 46.0876 70.1172 45.3637 70.8602C44.6583 71.5652 43.7023 71.9367 42.5838 71.9367C40.6904 71.9367 39.4791 70.9698 38.6855 69.6361Z" fill="#FF7C1C"/>
<path d="M49.8992 58.7803H59.0323V60.1139H51.3239V64.5436H58.2201V65.8772H51.3239V70.4164H59.1205V71.7501H49.8945V58.7803H49.8992Z" fill="#FF7C1C"/>
<path d="M61.4336 65.2533C61.4336 61.5857 64.1067 58.5469 67.824 58.5469C70.1165 58.5469 71.4531 59.4185 72.7154 60.6426L71.778 61.681C70.7152 60.6426 69.5225 59.8996 67.8054 59.8996C65.007 59.8996 62.914 62.2335 62.914 65.2533C62.914 68.254 65.0256 70.6069 67.8054 70.6069C69.5411 70.6069 70.6734 69.9211 71.8847 68.7351L72.8221 69.7544C71.5041 71.1261 70.0609 71.9596 67.7683 71.9596C64.1253 71.9596 61.4336 69.0161 61.4336 65.2533Z" fill="#FF7C1C"/>
<path d="M78.6636 60.133H74.4219V58.7803H84.3485V60.133H80.1069V71.7501H78.6636V60.133Z" fill="#FF7C1C"/>
<path d="M86.3438 58.7803H89.8476V63.6338H94.3399V58.7803H97.8437V71.7501H94.3399V66.8203H89.8476V71.7501H86.3438V58.7803Z" fill="#FF7C1C"/>
<path d="M99.6523 65.2552C99.6523 61.5305 102.576 58.5107 106.474 58.5107C110.373 58.5107 113.264 61.4924 113.264 65.2552C113.264 68.9799 110.34 71.9997 106.442 71.9997C102.539 71.9997 99.6523 69.0181 99.6523 65.2552ZM109.69 65.2552C109.69 63.3834 108.372 61.7544 106.442 61.7544C104.53 61.7544 103.244 63.35 103.244 65.2552C103.244 67.1271 104.562 68.7561 106.474 68.7561C108.41 68.7561 109.69 67.1652 109.69 65.2552Z" fill="#FF7C1C"/>
<path d="M115.078 58.7803H118.781L121.798 63.8005L124.815 58.7803H128.518V71.7501H125.033V64.3007L121.803 69.3781H121.733L118.522 64.3388V71.7501H115.092V58.7803H115.078Z" fill="#FF7C1C"/>
<path d="M130.746 58.7803H140.909V61.8382H134.213V63.8005H140.278V66.6346H134.213V68.6922H141.002V71.7501H130.751V58.7803H130.746Z" fill="#FF7C1C"/>
<path d="M66.9117 0.193359H60.3867V6.87593H66.9117V0.193359Z" fill="#FF7C1C"/>
</svg>
